<svg id="Layer_1" data-name="Layer 1" xmlns="http://www.w3.org/2000/svg" viewBox="0 0 151.18 114.54"><defs><style>.cls-1,.cls-2{fill:#eaa655;}.cls-1{stroke:#eaa655;stroke-miterlimit:22.93;stroke-width:0.48px;}.cls-1,.cls-2,.cls-3{fill-rule:evenodd;}.cls-3{fill:#007c6d;}</style></defs><path class="cls-1" d="M77.1,25.85l.12-.46-2.3.84L74.26,25l-.15.51L75,27.22l-1.3-.36-.1.36L76.5,28l.1-.35-1.08-.3-.42-.78,2-.73Zm1.12-2.62-.92-.05-.49,1.12.65.65-.16.36L75,23.07l.16-.36,3.18.15-.16.37Zm-1.32-.06-1.29-.07.92.91.37-.84Zm2.26-1.48a1.12,1.12,0,0,0,.18-.49.93.93,0,0,0,0-.47.88.88,0,0,0-.32-.37.75.75,0,0,0-.79,0,2.57,2.57,0,0,0-.54.47c-.28.28-.5.43-.74.28a.43.43,0,0,1-.17-.43,1,1,0,0,1,.79-.8l-.12-.36a1.81,1.81,0,0,0-.74.47,1.29,1.29,0,0,0-.3.65.92.92,0,0,0,0,.44.79.79,0,0,0,.3.35.72.72,0,0,0,.75,0A2.85,2.85,0,0,0,78,21c.23-.24.5-.47.77-.3a.49.49,0,0,1,.21.48,1,1,0,0,1-.27.51,1.61,1.61,0,0,1-.7.41l.11.36a2.06,2.06,0,0,0,.85-.51,2,2,0,0,0,.19-.24Zm2-2.75-1.19-1L79,19.1l1.18,1-.24.29-2.27-1.92.24-.29.81.69,1-1.17L78.9,17l.24-.29,2.27,1.92-.24.29Zm2.64-2.53-2-2.23-.3.27L81.69,16l-1.54-.34-.29.26,2,2.23.28-.25-1.57-1.77,1.56.34L82,14.88l1.58,1.77.28-.24Zm.71-.5L82.77,13.5l.31-.22,1.75,2.41-.31.22Zm1.17-2.63a.7.7,0,0,0-.32-1.18.7.7,0,0,0-.53.07L84,12.7l1.51,2.56.31-.18L85,13.73l.37-.22,1.77.77.37-.22-1.79-.78Zm-1.25-.46.35.6.58-.34a.35.35,0,0,0-.35-.6l-.58.34Zm4.82.56.36-.13-.86-2.46.75-.26-.12-.34-1.84.64.12.34.74-.25.85,2.46Zm2.22-3.82a1.56,1.56,0,1,0,1.81,1.25,1.56,1.56,0,0,0-1.81-1.25Zm.49,2.7a1.18,1.18,0,0,1-1.37-.95,1.18,1.18,0,1,1,1.37.95Z" transform="translate(-24.41 -2.73)"/><polygon class="cls-1" points="97.56 27.91 100.63 27.67 100.66 28.12 97.59 28.36 97.56 27.91"/><path class="cls-1" d="M106.11,12.08l.46.08-1-2.21,1.19-.78-.52-.09-1.65,1.07.24-1.33-.36-.06-.53,2.92.36.06.2-1.1.74-.48.91,1.92Zm2.73.74-.07-.92-1.17-.34-.55.74-.39-.11,1.92-2.53.38.1.27,3.17-.39-.11Zm-.11-1.31-.11-1.28-.78,1,.89.26ZM111.42,14l.37.17,1.24-2.7-.34-.16-1,2.13-.45-2.79-.37-.17-1.25,2.69.34.16,1-2.13.46,2.8Zm1.6,1,.83-1.26-.07-1.8.39.26,0,1.33,1.25-.48.38.25-1.69.65-.82,1.26L113,15Zm2.62,2.09.3.26,1.12-3-.29-.26-2.83,1.45.3.27.82-.43.91.81-.33.87Zm.46-1.24.46-1.2-1.14.59.68.61Zm1.58,3.49.54-2.06-.88-.1-.86.72-.24-.28,2.28-1.91.24.28-1,.87,2,.23.34.41-1.42-.17L118,19.71l-.31-.36Zm3.86.33L120,20.74a.76.76,0,0,1-1.06-.19.78.78,0,0,1,.2-1.06l1.55-1.06-.21-.31-1.55,1.07a1.13,1.13,0,1,0,1.29,1.86L121.76,20l-.22-.31Zm-.85,5-.15-.34,2.17-.95L121.15,23l.81-1.38-2.17,1-.15-.34,2.72-1.19.16.36-.8,1.35,1.53.34.16.36-2.72,1.19Zm.76,2.5.11.39,2.56-1.89L124,25.3,120.85,25l.11.39.91.09.32,1.17-.74.54Zm1.06-.78-.24-.89,1.28.13-1,.76Zm.85,2.36L122,30.15l-.08-.42,1.35-1.38-.07-.42-1.54.26-.06-.35,2.93-.5.17,1a.71.71,0,0,1-.58.81.7.7,0,0,1-.76-.41Zm.87-1-.68.12.11.66a.35.35,0,0,0,.69-.12Z" transform="translate(-24.41 -2.73)"/><path class="cls-2" d="M67.47,94.86h.41a9.66,9.66,0,0,0,1.71,3.37,8.34,8.34,0,0,0,2.59,2.2,6,6,0,0,0,2.85.77,3.85,3.85,0,0,0,2.78-1A3.38,3.38,0,0,0,78.9,97.6a2.86,2.86,0,0,0-1.17-2.46,11.47,11.47,0,0,0-3.67-1.53,14.47,14.47,0,0,1-5-2.27,4.86,4.86,0,0,1-1.78-4.12,5.49,5.49,0,0,1,2.08-4.48A8.21,8.21,0,0,1,74.7,81a14.64,14.64,0,0,1,6.18,1.54V88h-.4a9.21,9.21,0,0,0-2.63-4.2,5.81,5.81,0,0,0-4-1.7,3.69,3.69,0,0,0-2.58.89,2.94,2.94,0,0,0-1,2.26,2.7,2.7,0,0,0,1.17,2.33A12.28,12.28,0,0,0,75.11,89a14.1,14.1,0,0,1,5.13,2.38A5.38,5.38,0,0,1,82,95.83C82,103.26,70,106.46,67.47,94.86Z" transform="translate(-24.41 -2.73)"/><path class="cls-2" d="M86.5,101.52a7.1,7.1,0,0,0,1.09-4.16V77.93a7.25,7.25,0,0,0-.35-2.44,4.32,4.32,0,0,0-1-1.63v-.21l5.7-2h.2V85h.2a7,7,0,0,1,2.51-2.86A6.83,6.83,0,0,1,98.73,81,6.22,6.22,0,0,1,103.52,83a7.15,7.15,0,0,1,1.8,5v9.33a7,7,0,0,0,1.09,4.16v.2H99.7v-.2a7,7,0,0,0,1.09-4.16V88.11A4.33,4.33,0,0,0,99.64,85a4,4,0,0,0-3-1.21A4.5,4.5,0,0,0,93.42,85a4.07,4.07,0,0,0-1.31,3.11v9.25a7,7,0,0,0,1.09,4.16v.2H86.5Z" transform="translate(-24.41 -2.73)"/><path class="cls-2" d="M154.35,101.52a7,7,0,0,0,1.09-4.16v-10a7.3,7.3,0,0,0-.34-2.45,4.44,4.44,0,0,0-1-1.63v-.21l5.69-2h.2v4h.21a7,7,0,0,1,6.42-4A6.2,6.2,0,0,1,171.37,83a7.15,7.15,0,0,1,1.8,5v9.33a7,7,0,0,0,1.09,4.16v.2h-6.7v-.2a7.1,7.1,0,0,0,1.09-4.16V88.11A4.38,4.38,0,0,0,167.5,85a4,4,0,0,0-3.05-1.21A4.48,4.48,0,0,0,161.28,85,4,4,0,0,0,160,88.11v9.25a7.1,7.1,0,0,0,1.09,4.16v.2h-6.7Z" transform="translate(-24.41 -2.73)"/><path class="cls-2" d="M64.24,100.59a3.06,3.06,0,0,1-1.33,1.17,4.41,4.41,0,0,1-2,.45,3.85,3.85,0,0,1-2.46-.73,2.93,2.93,0,0,1-1.09-2.1l-.05-.32h-.12a6,6,0,0,1-2.3,2.32,6.93,6.93,0,0,1-3.47.83A5.68,5.68,0,0,1,47.6,101a3.9,3.9,0,0,1-1.37-3.11,4.83,4.83,0,0,1,1.59-3.7A10,10,0,0,1,52,92.05a20.09,20.09,0,0,1,5.38-.71v-2.9a5,5,0,0,0-1.4-3.64,5,5,0,0,0-3.73-1.41A5.65,5.65,0,0,0,47,86.58h-.41a6.9,6.9,0,0,1,2.73-4,8.14,8.14,0,0,1,4.9-1.5,7.64,7.64,0,0,1,5.62,2,7.23,7.23,0,0,1,2.06,5.36v10.7a1.68,1.68,0,0,0,.34,1.15,1.1,1.1,0,0,0,.87.38,1.34,1.34,0,0,0,1-.28l.2.2ZM53.86,100a3.24,3.24,0,0,0,2.49-1.09,3.64,3.64,0,0,0,1-2.51V92.23a8.57,8.57,0,0,0-4.67,1.27A3.86,3.86,0,0,0,51,96.84a3,3,0,0,0,.85,2.32A3,3,0,0,0,53.86,100Z" transform="translate(-24.41 -2.73)"/><path class="cls-2" d="M111.34,101.52a7.1,7.1,0,0,0,1.09-4.16V77.93a7.25,7.25,0,0,0-.35-2.44,4.32,4.32,0,0,0-1-1.63v-.21l5.7-2h.2V97.36a7,7,0,0,0,1.09,4.16v.2h-6.7v-.2Zm17,.49a5.54,5.54,0,0,0,2.66-.65v-.24q-.6-.16-1.89-1.86L121.19,89.2l3.15-3.31A27.77,27.77,0,0,1,127,83.35a12.5,12.5,0,0,1,2.64-1.62v-.2h-5.61v.2a1.87,1.87,0,0,1,.6,1.33,4.79,4.79,0,0,1-1.53,3l-5.37,5.9v.2l5.73,7.27a8.16,8.16,0,0,0,2.2,2A5.38,5.38,0,0,0,128.34,102Z" transform="translate(-24.41 -2.73)"/><path class="cls-2" d="M150.8,100.59a3.15,3.15,0,0,1-1.34,1.17,4.39,4.39,0,0,1-2,.45,3.85,3.85,0,0,1-2.46-.73,3,3,0,0,1-1.09-2.1l0-.32h-.12a6.17,6.17,0,0,1-2.3,2.32,7,7,0,0,1-3.48.83,5.65,5.65,0,0,1-3.79-1.17,3.88,3.88,0,0,1-1.38-3.11,4.81,4.81,0,0,1,1.6-3.7,9.85,9.85,0,0,1,4.14-2.18,20,20,0,0,1,5.37-.71v-2.9a4.81,4.81,0,0,0-5.13-5,5.79,5.79,0,0,0-3.13.84,5.89,5.89,0,0,0-2.12,2.35h-.41a6.94,6.94,0,0,1,2.73-4,8.17,8.17,0,0,1,4.91-1.5,7.61,7.61,0,0,1,5.61,2,7.19,7.19,0,0,1,2.06,5.36v10.7a1.68,1.68,0,0,0,.35,1.15,1.07,1.07,0,0,0,.86.38,1.34,1.34,0,0,0,1-.28l.21.2ZM140.42,100a3.24,3.24,0,0,0,2.48-1.09,3.64,3.64,0,0,0,1-2.51V92.23a8.59,8.59,0,0,0-4.67,1.27,3.85,3.85,0,0,0-1.71,3.34,3,3,0,0,0,.85,2.32A2.93,2.93,0,0,0,140.42,100Z" transform="translate(-24.41 -2.73)"/><path class="cls-2" d="M24.78,101.52a7,7,0,0,0,1.09-4.16V77.93a7.27,7.27,0,0,0-.34-2.44,4.32,4.32,0,0,0-1-1.63v-.21l5.69-2h.21V97.36a7,7,0,0,0,1.09,4.16v.2H24.78v-.2Zm17,.49a5.57,5.57,0,0,0,2.66-.65v-.24c-.4-.11-1-.73-1.9-1.86L34.64,89.2l3.15-3.31a29,29,0,0,1,2.68-2.54,12.58,12.58,0,0,1,2.65-1.62v-.2H37.5v.2a1.85,1.85,0,0,1,.61,1.33,4.79,4.79,0,0,1-1.53,3l-5.38,5.9v.2l5.74,7.27a8,8,0,0,0,2.2,2A5.35,5.35,0,0,0,41.79,102Z" transform="translate(-24.41 -2.73)"/><path class="cls-3" d="M24.41,111v6.12h1.21V111Zm6.29,0v3.73L28.08,111h-.91v6.12h1.2v-3.74L31,117.15h.92V111Zm5.19,0H33.46v6.12h2.43a3.06,3.06,0,0,0,0-6.12Zm0,5H34.67v-3.8h1.22a1.9,1.9,0,0,1,0,3.8Zm4.21-5v6.12h1.21V111Zm6.69,6.12H48.1L46,111H44.46l-2.14,6.12h1.3l.36-1.1h2.44l.37,1.1Zm-2.42-2.23.84-2.5.84,2.5ZM52.64,111v3.73L50,111h-.91v6.12h1.2v-3.74l2.62,3.74h.92V111Zm9.72,6.12L60,114l2.26-3H60.88l-2.09,2.7V111H57.58v6.12h1.21v-2.87L61,117.15Zm1-6.12v6.12h1.2V111Zm6.8,0h-4.5v1.16h1.64v5h1.21v-5h1.65V111Zm3.64,6.24a3,3,0,0,0,2.62-1.44l-1-.61a1.77,1.77,0,0,1-1.59.87,2,2,0,0,1,0-4,1.78,1.78,0,0,1,1.59.87l1-.6a3,3,0,0,0-2.62-1.44,3.18,3.18,0,0,0,0,6.36ZM81.07,111v2.43H78.8V111H77.59v6.12H78.8v-2.54h2.27v2.54h1.19V111Zm4,5v-1.37h2.31v-1.13H85v-1.3h2.53V111H83.82v6.12H87.6V116Zm7.38-5v3.73L89.78,111h-.92v6.12h1.2v-3.74l2.62,3.74h.92V111Zm8.63,3a1.52,1.52,0,0,0,.58-1.23A1.75,1.75,0,0,0,99.75,111H97.34v6.12h2.59a1.79,1.79,0,0,0,1.9-1.78A1.54,1.54,0,0,0,101,114Zm-1.28-1.82a.67.67,0,0,1,0,1.34H98.54v-1.34Zm.18,3.86H98.54v-1.44h1.39a.69.69,0,0,1,.71.71.7.7,0,0,1-.71.73Zm7.66-5h-1.36l-1.33,2.55L103.58,111h-1.37l2.09,3.73v2.39h1.2v-2.39l2.09-3.73Zm6.54,6.12h1.3l-1.35-2.31a2,2,0,0,0,1.18-1.78,2,2,0,0,0-2-2h-2.44v6.12H112V115h.92l1.23,2.13Zm-2.15-5h1.24a.86.86,0,0,1,.83.9.87.87,0,0,1-.83.91H112v-1.81Zm8.5,5h1.31L119.64,111h-1.49L116,117.15h1.3l.37-1.1h2.44l.36,1.1Zm-2.42-2.23.84-2.5.84,2.5Zm8.28-3.89v3.73L123.72,111h-.92v6.12H124v-3.74l2.62,3.74h.91V111Zm4.27,6.12h1.49l2.06-6.12h-1.32l-1.48,4.7-1.5-4.7h-1.31l2.06,6.12Zm5.76-1.16v-1.37h2.31v-1.13h-2.31v-1.3h2.53V111h-3.74v6.12h3.78V116Zm5,0v-1.37h2.31v-1.13h-2.31v-1.3h2.53V111h-3.73v6.12H144V116Zm7.19,1.16h1.3l-1.35-2.31a2,2,0,0,0,1.18-1.78,2,2,0,0,0-2-2h-2.44v6.12h1.2V115h.92l1.23,2.13Zm-2.15-5h1.24a.86.86,0,0,1,.83.9.87.87,0,0,1-.83.91h-1.24v-1.81ZM156.9,114a1.52,1.52,0,0,0,.58-1.23,1.75,1.75,0,0,0-1.86-1.72h-2.41v6.12h2.59a1.8,1.8,0,0,0,1.91-1.78,1.55,1.55,0,0,0-.81-1.39Zm-1.28-1.82a.67.67,0,0,1,0,1.34h-1.21v-1.34Zm.18,3.86h-1.39v-1.44h1.39a.69.69,0,0,1,.71.71.7.7,0,0,1-.71.73Zm6.46,1.13h1.3l-1.35-2.31a2,2,0,0,0,1.18-1.78,2,2,0,0,0-2-2h-2.44v6.12h1.2V115H161l1.23,2.13Zm-2.15-5h1.24a.86.86,0,0,1,.83.9.87.87,0,0,1-.83.91h-1.24v-1.81Zm8.5,5h1.31L167.78,111h-1.5l-2.14,6.12h1.31l.36-1.1h2.44l.36,1.1Zm-2.41-2.23.83-2.5.84,2.5Zm8.09,2.23h1.3l-1.35-2.31a2,2,0,0,0,1.17-1.78,2,2,0,0,0-2-2h-2.45v6.12h1.21V115h.92l1.23,2.13Zm-2.15-5h1.24a.86.86,0,0,1,.83.9.87.87,0,0,1-.83.91h-1.24Z" transform="translate(-24.41 -2.73)"/><path class="cls-3" d="M94.51,56.93l-.21,0-.2-.05-.21-.06-.2-.05-.2-.06-.2-.06-.2-.06-.19-.06-.2-.06-.19-.07-.19-.06-.19-.07-.19-.07-.18-.07L91.57,56l-.18-.07-.19-.08L91,55.79l-.18-.08-.18-.08-.18-.08-.17-.08-.18-.08L90,55.31l-.17-.09-.17-.09-.17-.08L89.28,55l-.17-.09-.17-.09-.16-.1-.17-.09-.16-.09-.16-.1-.16-.1L88,54.2l-.16-.09L87.66,54l-.16-.1-.15-.1-.16-.1L87,53.59l-.15-.1-.15-.11-.15-.11-.14-.11-.15-.11-.15-.11L86,52.82l-.14-.11-.15-.12-.14-.11-.14-.12-.14-.12-.13-.12L85,52l-.14-.12-.13-.12a.8.8,0,0,1-.13-.13l-.14-.12-.13-.13-.13-.12-.13-.13L84,51l-.12-.13-.13-.13-.12-.13-.13-.14-.12-.13-.12-.14-.12-.14L83,49.93l-.12-.14-.12-.14a1.71,1.71,0,0,0-.11-.14l-.12-.15a1.71,1.71,0,0,1-.11-.14l-.12-.14-.11-.15a.76.76,0,0,0-.11-.14L82,48.64l-.11-.15-.1-.15-.11-.15L81.53,48a.86.86,0,0,0-.1-.16l-.1-.15a1.4,1.4,0,0,1-.1-.16,1.3,1.3,0,0,1-.1-.15l-.1-.16-.1-.16-.1-.16-.09-.16-.1-.17-.09-.16-.1-.16-.09-.17L80.27,46a.89.89,0,0,1-.08-.17l-.09-.17L80,45.44s-.05-.11-.08-.17l-.09-.17a1.42,1.42,0,0,0-.08-.18c0-.06-.05-.12-.08-.17l-.08-.18-.08-.18-.07-.18a1.42,1.42,0,0,1-.08-.18,1.07,1.07,0,0,1-.07-.19l-.08-.18c0-.06,0-.12-.07-.19l-.07-.18c0-.07,0-.13-.07-.19a1.46,1.46,0,0,0-.07-.19l-.06-.19c0-.07,0-.13-.07-.2l-.06-.19-.06-.2-.06-.19-.06-.2a1.94,1.94,0,0,1,0-.2l-.06-.21c0-.06,0-.13,0-.2a1.6,1.6,0,0,1,0-.21,1.17,1.17,0,0,1,0-.2,1.6,1.6,0,0,1,0-.21c0-.07,0-.14-.05-.21s0-.14,0-.22,0-.14,0-.21a2.07,2.07,0,0,0,0-.22h0l-.18-.06-.19-.07-.19-.07-.19-.06-.19-.07L77,39.24l-.19-.06-.19-.07-.19-.06-.2-.07L76,38.91l-.19-.06-.19-.07-.19-.07-.19-.06L75,38.58l-.19-.07-.19-.06-.19-.07-.19-.06-.2-.07-.19-.07-.19-.06-.19-.07L73.32,38l-.19-.06-.19-.07-.19-.06-.19-.07-.19-.07-.2-.06L72,37.52l-.19-.07-.19-.06-.19-.07-.19-.07L71,37.19l-.19-.07-.19-.06L70.46,37l-.19-.07-.2-.06-.19-.07-.19-.07-.19-.06-.19-.07-.19-.06-.19-.07-.19-.07-.19-.06-.19-.07-.2-.07L68,36.13l-.19-.07L67.59,36l-.19-.06-.19-.07L67,35.8l-.19-.07-.19-.07.39-.13.39-.14.4-.14.39-.13.4-.14.39-.14.4-.13.39-.14.39-.14.4-.14.39-.13.4-.14.39-.14.39-.13.4-.14.39-.14.4-.13.39-.14.4-.14.39-.13.39-.14.4-.14.39-.13.4-.14.39-.14.39-.13.4-.14.39-.14.4-.13h0l.06-.32c0-.11,0-.22.07-.32s.05-.22.07-.33.06-.23.08-.34l.09-.35c0-.12.07-.23.1-.35s.07-.25.11-.37.07-.25.11-.37.09-.26.13-.38.09-.27.14-.4l.15-.41c.06-.15.12-.29.17-.43s.13-.3.19-.45.14-.31.22-.47.15-.33.24-.49a5.28,5.28,0,0,1,.27-.53c.1-.2.21-.39.31-.58l.38-.63c.15-.25.31-.49.47-.72s.41-.6.63-.89c.35-.48.73-.94,1.12-1.38a22.36,22.36,0,0,1,1.88-1.89c.45-.39.91-.76,1.39-1.12.29-.22.58-.43.88-.63s.48-.32.73-.47l.63-.37.57-.32.53-.27.5-.24.47-.21.45-.19.42-.17.42-.16.39-.14.39-.12.37-.12.37-.11.35-.1.35-.08.33-.08.33-.08.33-.07.32-.06h0l.14-.4.14-.39L96,13l.14-.4.14-.39.13-.4.14-.39L96.7,11l.13-.4.14-.39.14-.4.13-.39L97.38,9l.14-.4.13-.39.14-.4.14-.39.13-.39.14-.4.14-.39.13-.4.14-.39.14-.39.13-.4L99,4.31l.14-.4.14-.39.13-.39.14-.4.06.19.07.19.07.19.06.2.07.19.07.19.06.19.07.19.07.19.06.19.07.19.06.19.07.19.07.19.06.2.07.19.07.19.06.19.07.19.06.19.07.19.07.19.06.19.07.19.07.2.06.19.07.19.07.19.06.19.07.19.06.19.07.19.07.19.06.19.07.19.07.2.06.19.07.19.07.19.06.19.07.19.06.19.07.19.07.19.06.19.07.19.07.2.06.19.07.19.07.19.06.19.07.19.06.19.07.19.07.19.06.19.07.2.07.19.06.19.06.17h0l.22.05.21,0,.21,0,.22,0,.2.05.21,0,.21.05.2.05.2.06.21.05.19.06.2.06.2.06.19.07.19.06.2.07.19.06.19.07.18.07.19.07.18.08.19.07.18.08.18.07.18.08.17.08.18.08.18.08.17.09.17.08.17.09.17.09.17.09a1.4,1.4,0,0,1,.17.09l.16.09.17.09.16.09.17.1.16.09.16.1.16.1.15.1.16.1.16.1.15.1.15.11.16.1.15.11.15.1.15.11.14.11.15.11.15.12.14.11.14.11.15.12.14.11.14.12.14.12.13.12.14.12.14.12.13.12a1.59,1.59,0,0,1,.13.13l.14.12.13.13.13.13.13.12a.8.8,0,0,0,.13.13l.12.13.13.13.12.14.13.13.12.13.12.14.12.14.12.13.12.14.12.14a1.71,1.71,0,0,0,.11.14l.12.15a1.71,1.71,0,0,1,.11.14l.12.14.11.15.11.15.11.14.11.15.1.15.11.15.11.16.1.15.1.15a1.4,1.4,0,0,1,.1.16.86.86,0,0,1,.1.16l.1.15.1.16c0,.06.07.11.1.16a.86.86,0,0,0,.1.16l.09.17.09.16.1.16.09.17.09.17.09.17.08.17.09.17a1.3,1.3,0,0,1,.08.17l.09.17.08.18c0,.06.05.12.08.17l.08.18.08.18.08.18.07.18c0,.06,0,.12.08.19l.07.18c0,.06,0,.12.07.19l.07.18c0,.07,0,.13.07.19l.07.19.06.19c0,.07,0,.13.07.2l.06.19.06.2.06.19.06.2.06.2a1.6,1.6,0,0,0,.05.21,1.17,1.17,0,0,1,0,.2l.06.21a1.94,1.94,0,0,0,0,.2c0,.07,0,.14,0,.21a1.6,1.6,0,0,1,.05.21c0,.07,0,.14,0,.21a1.43,1.43,0,0,0,0,.22c0,.07,0,.14,0,.22v0l.17.06.19.07.19.06.2.07L122,32l.19.07.19.07.19.06.19.07.19.07.19.06.19.07.19.07.2.06.19.07.19.06.19.07.19.07.19.06.19.07.19.07.19.06.19.07.19.07.2.06.19.07.19.06.19.07.19.07.19.06.19.07.19.07.19.06.19.07.19.07.2.06.19.07.19.06.19.07.19.07.19.06.19.07.19.07.19.06.19.07.19.06.2.07.19.07.19.06.19.07.19.07.19.06.19.07.19.07.19.06.19.07.2.06.19.07.19.07.19.06-.4.14-.39.14-.39.13-.4.14-.39.14-.4.13-.39.14-.39.14-.4.14-.39.13-.4.14-.39.14-.4.13-.39.14-.39.14-.4.13-.39.14-.4.14-.39.13-.4.14-.39.14-.39.14-.4.13L123,39l-.4.14-.39.13-.4.14-.39.14-.39.13L121,40c0,.11-.05.22-.07.33s0,.22-.08.33,0,.22-.08.34,0,.23-.08.34-.07.24-.1.35-.07.25-.11.37-.07.25-.11.37-.09.26-.13.39l-.14.39-.15.41c-.06.15-.12.29-.17.43l-.19.45-.21.47-.24.49-.27.53c-.1.19-.21.38-.32.57s-.24.42-.37.63-.3.48-.46.72-.41.59-.62.88c-.35.46-.71.91-1.09,1.34a21.61,21.61,0,0,1-2,2c-.43.38-.88.74-1.34,1.09-.29.21-.58.42-.88.62l-.72.46-.63.37-.57.32-.53.27-.49.24-.47.21-.45.19-.43.17-.41.15-.39.14-.39.13-.37.11-.36.11-.36.1-.34.08-.34.08-.33.08-.33.07-.32.06-.14.39-.13.4-.14.39-.14.4-.13.39-.14.39-.14.4-.13.39-.14.4-.14.39-.14.4-.13.39-.14.39-.14.4-.13.39-.14.4-.14.39-.13.4-.14.39-.14.39-.14.4-.13.39-.14.4-.14.39-.13.4-.14.39-.14.39-.13.4-.14.39-.07-.19-.06-.19L99.37,68l-.07-.19-.06-.19-.07-.19-.07-.19L99,67.07l-.07-.2-.06-.19-.07-.19-.07-.19-.06-.19-.07-.19-.07-.19-.06-.19-.07-.19-.06-.19-.07-.2-.07-.19-.06-.19-.07-.19L98,64.2,98,64l-.07-.19-.07-.19-.06-.19-.07-.19-.06-.2-.07-.19-.07-.19-.06-.19-.07-.19-.07-.19-.06-.19-.07-.19-.06-.19-.07-.19-.07-.2L96.92,61l-.07-.19-.07-.19-.06-.19-.07-.19L96.59,60l-.07-.19-.07-.19-.06-.19-.07-.2L96.25,59l-.06-.19-.07-.19-.06-.19L96,58.28l-.07-.19-.06-.19-.07-.19-.07-.19-.06-.2-.06-.16h0l-.21,0-.22,0-.21,0-.21,0-.21,0Zm5.86-12.29V61.43l0-.1.14-.4.14-.39.13-.4.14-.39.14-.39.13-.4.14-.39.14-.4.14-.39.13-.4.14-.39.14-.39.13-.4.14-.39.14-.4.13-.39.14-.4.14-.39.14-.39.13-.4.14-.39.14-.4.13-.39.14-.4.14-.39.13-.39.14-.4.14-.39.14-.4.13-.39.14-.4.14-.39.13-.39.14-.4.14-.39.14-.4.13-.39.14-.4.14-.39.13-.39.14-.4.14-.39.13-.4.14-.39.14-.4.14-.39.1-.29.29-.1.39-.14.4-.14.39-.13.4-.14.39-.14.39-.13.4-.14.39-.14.4-.14.39-.13.39-.14.4-.14.39-.13.4-.14.39-.14.4-.13.39-.14.39-.14.4-.14.39-.13.4-.14.39-.14.4-.13.39-.14.39-.14.4-.13.39-.14.4-.14.39-.13.4-.14.39-.14.39-.14.4-.13.39-.14.4-.14.39-.13.4-.14.39-.14.39-.13.4-.14.39-.14.4-.14.39-.13.39-.14.4-.14.39-.13.1,0h-25v8.18ZM88.07,25.29l-.13-.13L87.81,25l-.12-.12-.13-.13-.13-.13-.13-.13-.13-.13L87,24.26l-.13-.13L86.78,24l-.12-.13-.13-.13-.13-.13-.13-.13-.13-.13L86,23.23l-.13-.12L85.75,23l-.12-.13-.13-.13-.13-.13-.13-.13-.13-.13L85,22.21l-.13-.13L84.72,22l0-.05c-.22.25-.44.49-.65.75s-.62.76-.9,1.15-.38.54-.56.82-.29.45-.42.68-.24.4-.35.6l-.29.55-.25.5-.21.48-.2.45c-.06.14-.11.28-.17.43l-.15.41c0,.13-.1.26-.14.4s-.09.25-.13.38-.07.25-.11.37-.07.24-.1.36-.07.23-.1.35-.06.23-.08.34a1.24,1.24,0,0,0,0,.16L80,31l.39-.14.39-.13.4-.14.39-.14.4-.13.39-.14.39-.14.4-.13.39-.14.4-.14.39-.13.4-.14.39-.14.39-.13L86,29l.39-.14.4-.13.39-.14.39-.14.4-.14.39-.13.4-.14.39-.14.39-.13.4-.14.36-.12-.12-.12L90,27.22l-.13-.13L89.74,27l-.12-.13-.13-.12-.13-.13-.13-.13-.13-.13L89,26.19l-.13-.13-.13-.13-.12-.12-.13-.13-.13-.13-.13-.13-.13-.13Zm4.25-1.68.14-.39.13-.39.14-.4.14-.39.14-.4.13-.39.14-.39.14-.4.13-.39.14-.4.14-.39.13-.39.14-.4.14-.39.13-.4.14-.39.14-.39.13-.4.14-.39.07-.21-.16,0-.34.08-.35.1-.36.1-.37.11-.39.13-.39.14-.41.15-.43.17-.45.2-.48.22-.5.24-.55.29-.6.35c-.23.13-.46.27-.68.42s-.55.37-.82.56-.78.58-1.15.9-.51.43-.75.66l0,0L86,21l.13.13.13.13.13.12.13.13.13.13.12.13.13.13L87,22l.13.13.13.12.13.13.13.13.13.13.12.13.13.13L88,23l.13.12.13.13.13.13.13.13.13.13.12.13.13.13.13.12.13.13.13.13.13.13.13.13.12.13.13.13.13.12.13.13.13.13.13.13.13.13.13.13.12.13.13.12L91,26l.13.13.13.13.12.12L91.5,26l.14-.4.13-.39.14-.39.14-.4.13-.39.14-.4Zm15.45,2.72,5.56-5.56-.08-.07-.14-.13-.13-.12-.14-.12-.14-.12-.14-.11-.14-.12-.14-.12-.14-.11-.15-.11-.14-.11-.15-.12-.15-.1-.15-.11-.15-.11L111.1,19l-.15-.1-.16-.1-.15-.11-.16-.1-.16-.1-.15-.09-.16-.1-.17-.1-.16-.09-.16-.09-.17-.1-.16-.09-.17-.09-.17-.08-.17-.09-.17-.09-.18-.08-.17-.08-.18-.08-.18-.08-.18-.08-.18-.08-.18-.07-.18-.08-.19-.07-.18-.07-.19-.07-.19-.07-.19-.06-.19-.07-.2-.06-.19-.06-.2-.06-.2-.06-.2-.06-.21-.05-.2-.05-.21,0-.19-.05.06.18.07.19.06.19.07.19.07.19.06.19.07.19.07.19.06.2.07.19.06.19.07.19.07.19.06.19.07.19.07.19.06.19.07.19.07.19.06.2.07.19.06.19.07.19.07.19.06.19.07.19.07.19.06.19.07.19.07.19.06.2.07.19.06.19.07.19.07.19.06.19.07.19.07.19.06.19.07.19.07.19.06.2.07.19.06.19.07.19.07.19.06.19.07.19.07.19.06.19.07.19.06.2.07.19.07.19,0,.11Zm7.16,3.23.19.07.19.06.2.07.19.07.19.06.19.07.19.06.19.07.19.07.19.06.19.07.19.07.19.06.2.07.19.07.19.06.19.07.19.06.19.07.19.07.19.06.19.07.18.06c0-.06,0-.13,0-.19a1.6,1.6,0,0,1,0-.21l-.06-.21a1.94,1.94,0,0,0,0-.2l-.06-.2,0-.2-.06-.2a1.46,1.46,0,0,0-.07-.19l-.06-.2-.06-.19-.07-.19a3236520628299,3236520628299,0,0,1-.14-.38,1.34,1.34,0,0,0-.07-.18c0-.07,0-.13-.07-.19l-.07-.18c0-.06,0-.12-.08-.19a1.42,1.42,0,0,0-.08-.18c0-.06,0-.11-.07-.17a1.42,1.42,0,0,1-.08-.18l-.09-.18a1.3,1.3,0,0,0-.08-.17l-.08-.18-.09-.17-.08-.17-.09-.17-.09-.17-.09-.16-.09-.17-.1-.16-.09-.16-.1-.17-.09-.16a1.3,1.3,0,0,1-.1-.15l-.1-.16a1.4,1.4,0,0,1-.1-.16l-.11-.15a.86.86,0,0,0-.1-.16l-.1-.15-.11-.15-.11-.15-.1-.15-.11-.15-.11-.15-.12-.14-.11-.15a1.71,1.71,0,0,1-.11-.14l-.12-.14-.11-.14-.12-.14-.12-.14-.12-.14-.12-.13-.12-.14-.08-.08-5.56,5.56.11,0,.19.07.2.07.19.06.19.07.19.07.19.06.19.07.19.06.19.07.19.07.19.06.19.07.2.07.19.06.19.07.19.06.19.07.19.07.19.06.19.07.19.07.19.06.19.07.2.07.19.06.19.07.19.06.19.07.19.07.19.06.19.07Zm-4,16.34.13.13.13.13.13.13.13.13.12.12.13.13.13.13.13.13.13.13.13.13.13.13.12.12.13.13.13.13.13.13L113,48l.13.13.13.13.13.12.12.13.13.13.13.13.13.13L114,49l.13.13.13.12.12.13,0,.05c.25-.26.48-.53.71-.8s.59-.74.87-1.13.38-.54.55-.81.29-.45.42-.68.23-.39.34-.59l.29-.55c.09-.17.17-.33.25-.5l.22-.48.19-.45c.06-.14.11-.28.17-.43l.15-.41c0-.13.1-.26.14-.39s.09-.26.13-.39.07-.24.11-.37.07-.24.1-.36a3.57,3.57,0,0,0,.1-.35c0-.11,0-.23.08-.34a.83.83,0,0,1,0-.15l-.23.08-.39.14-.39.13-.4.14-.39.14-.4.13-.39.14-.39.14-.4.13-.39.14-.4.14-.39.14-.4.13-.39.14-.39.14-.4.13-.39.14-.4.14-.39.13-.4.14-.39.14-.39.14-.4.13-.39.14-.4.14-.39.13-.34.12L109,44l.13.13.13.13.13.13.13.13.12.12.13.13.13.13L110,45l.13.13.13.13.13.13.12.12.13.13.13.13.13.13Zm-4.11,1.79-.14.4-.13.39-.14.4-.14.39-.13.4-.14.39-.14.4-.14.39-.13.39-.14.4-.14.39-.13.4-.14.39-.14.4-.13.39-.14.39-.14.4-.14.39-.13.4-.08.22.15,0,.34-.08.35-.1.36-.1.37-.11.38-.13.4-.14.41-.15.43-.17.45-.19.47-.22.51-.25.54-.29.6-.34.68-.41.81-.56c.38-.27.76-.57,1.13-.87l.81-.71,0,0-.13-.13-.13-.13-.13-.12-.13-.13-.13-.13-.13-.13-.12-.13-.13-.13-.13-.13-.13-.12-.13-.13-.13-.13-.13-.13-.13-.13-.12-.13-.13-.13-.13-.12-.13-.13-.13-.13-.13-.13-.13-.13-.12-.13-.13-.13-.13-.12-.13-.13-.13-.13-.13-.13-.13-.13-.13-.13-.12-.13-.13-.13-.13-.12-.13-.13-.13-.13-.13-.13-.13-.13-.12-.13-.13-.13-.13-.12-.13-.13-.13-.13-.13-.13-.11-.11-.12.34-.13.39-.14.4-.14.39-.13.4-.14.39-.14.39ZM93.38,55l.2.06.2.06.2.06.2.05.2.06.21.05.2,0,.2,0-.06-.19L94.86,55l-.06-.19-.07-.19-.07-.19-.06-.19-.07-.19-.07-.19-.06-.19-.07-.19-.06-.2-.07-.19-.07-.19-.06-.19L94,52.55l-.07-.19-.06-.19L93.8,52l-.06-.19-.07-.19-.07-.2-.06-.19L93.47,51l-.07-.19-.06-.19-.07-.19-.06-.19-.07-.19-.07-.19L93,49.69l-.07-.2-.07-.19-.06-.19-.07-.19-.07-.19-.06-.19-.07-.19-.06-.19L92.41,48l-.07-.19-.06-.2-.07-.19-.07-.19L92.08,47,92,46.82,92,46.63l-.07-.19-.07-.19-.06-.19-.07-.19-.07-.2-.06-.19-.07-.19-.06-.19,0-.11-5.57,5.57.08.07.14.12.13.12.14.12.14.12.14.12.14.11.14.12.14.11.15.12.14.11.15.11.15.11.15.11.15.1.15.11.15.1.15.11.16.1.16.1.15.1L89,53l.16.09.16.1.17.09.16.1.17.09.16.09.17.09.17.09.17.09.17.08.18.08L91,54l.18.08.17.08.18.08.18.07.18.08.19.07.18.07.19.08.19.07.19.06.19.07.19.06.19.07Zm-8.7-5.54,5.57-5.57-.13,0-.19-.07-.19-.06-.19-.07-.19-.06-.19-.07L89,43.42l-.19-.06-.19-.07-.19-.07-.2-.06L88,43.09,87.83,43,87.64,43l-.19-.07-.19-.06-.19-.07-.19-.07-.19-.06-.19-.07-.19-.07-.2-.06-.19-.07-.19-.07-.19-.06-.19-.07-.19-.06L85,42,84.78,42l-.19-.06-.19-.07-.2-.07L84,41.7l-.19-.07-.19-.06-.19-.07-.19-.07-.19-.06-.19-.07-.19-.07-.19-.06-.19-.07L82.1,41,81.91,41l-.19-.07-.19-.06-.19-.07-.19-.07L81,40.64l-.19-.07-.19-.07-.19-.06-.2-.07L80,40.31l-.17-.06c0,.06,0,.12,0,.18l.06.21a1.6,1.6,0,0,0,0,.21c0,.06,0,.13,0,.2l.06.2.06.2.06.2.06.19.06.2.06.19a1.46,1.46,0,0,1,.07.19l.07.19a1.46,1.46,0,0,0,.07.19c0,.06,0,.12.07.19l.07.18a1.34,1.34,0,0,1,.07.18c0,.06,0,.12.08.19l.08.18a.89.89,0,0,0,.08.17l.07.18.09.18a.89.89,0,0,0,.08.17l.08.18.09.17.08.17.09.17.09.17.09.16.09.17.1.16.09.17c0,.05.07.1.1.16l.09.16a.86.86,0,0,1,.1.16,1.3,1.3,0,0,1,.1.15l.1.16.11.16a1.3,1.3,0,0,0,.1.15l.1.15.11.15.11.15.1.15.11.15.11.15.12.14.11.15.11.14.12.14.11.14.12.14.12.14.12.14.12.14.12.13.08.09Zm9-2.71.07.19.06.19.07.19.06.19.07.19.07.19.06.19.07.19.07.2.06.19.07.19.07.19.06.19.07.19.06.19.07.19.07.19.06.19.07.19.07.2.06.19.07.19.06.19.07.19.07.19.06.19.07.19.07.19.06.19.07.2.07.19.06.19.07.19.06.19.07.19.07.19.06.19.07.19.07.19.06.19.07.2.07.19.06.19.07.19.06.19.07.19.07.19.06.19.07.19.07.19.06.19.07.2.06.19.07.19.07.19.06.19.07.19.07.19.06.19.07.19.07.19.06.2.07.19.06.19.07.19.07.19.06.19.07.19.07.19.06.19.07.19.07.19.06.2.07.19.06.19.07.19.07.19h0v-25h-25l.19.07.19.07.19.06.2.07.19.07.19.06.19.07.19.06.19.07.19.07.19.06.19.07.19.07.2.06.19.07.19.06.19.07.19.07.19.06.19.07.19.07.19.06.19.07.19.07.2.06.19.07.19.06.19.07.19.07.19.06.19.07.19.07.19.06.19.07.19.07.2.06.19.07.19.06.19.07.19.07.19.06.19.07.19.07.19.06.19.07.19.07.2.06.19.07.19.06.19.07.19.07.19.06.19.07.19.07.19.06.19.07.19.07.2.06.19.07.19.06.19.07.19.07.19.06.19.07.19.07.19.06.19.07.2.06L87,41l.19.07.19.06.19.07.19.07.19.06.19.07.19.07.19.06.19.07.2.06.19.07.19.07.19.06.19.07.19.07.19.06.19.07.19.07.19.06.19.07.2.06.19.07.19.07.19.06.19.07.19.07.19.06.19.07.07.19.06.19.07.19.07.19.06.19.07.19.07.2.06.19.07.19.07.19.06.19.07.19.06.19.07.19.07.19.06.19.07.19.07.2.06.19.07.19ZM90.85,29l-.4.13-.39.14-.39.14-.4.13-.39.14-.4.14-.39.13-.4.14-.39.14-.39.14-.4.13-.39.14-.4.14-.39.13-.39.14-.4.14-.39.13-.4.14-.39.14-.39.13-.4.14-.39.14-.4.13-.39.14-.4.14-.39.14-.39.13-.4.14-.39.14-.4.13-.39.14-.39.14-.4.13-.39.14-.4.14-.39.13-.39.14-.4.14-.39.13-.4.14-.39.14-.4.13-.39.14-.1,0h25V9.9l0,.09-.14.4-.14.39-.13.4-.14.39-.14.39-.13.4-.14.39-.14.4-.13.39-.14.39-.14.4-.13.39-.14.4-.14.39-.13.39-.14.4-.14.39-.13.4-.14.39-.14.39-.13.4-.14.39-.14.4-.13.39-.14.39-.14.4-.13.39-.14.4-.14.39-.13.39-.14.4-.14.39-.13.4-.14.39-.14.39-.13.4-.14.39-.14.4-.13.39-.14.39-.14.4-.14.39-.13.4-.14.39-.14.39-.13.4-.11.31-.31.11-.39.13-.4.14-.39.14Zm14.63-4.34-.07-.19-.07-.19-.06-.2-.07-.19-.06-.19-.07-.19-.07-.19-.06-.19-.07-.19-.07-.19-.06-.19-.07-.19-.06-.19-.07-.2-.07-.19-.06-.19-.07-.19-.07-.19-.06-.19-.07-.19-.07-.19-.06-.19-.07-.19-.06-.19-.07-.2-.07-.19-.06-.19-.07-.19-.07-.19-.06-.19-.07-.19-.07-.19-.06-.19-.07-.19-.06-.19-.07-.2-.07-.19-.06-.19-.07-.19-.07-.19-.06-.19-.07-.19-.06-.19-.07-.19-.07-.19-.06-.2-.07-.19-.07-.19-.06-.19-.07-.19-.07-.19-.06-.19-.07-.19-.06-.19-.07-.19-.07-.19-.06-.2-.07-.19-.07-.19-.06-.19-.07-.19-.07-.19-.06-.19-.07-.19-.06-.19L101.1,12l-.07-.19-.06-.2-.07-.19-.07-.19-.06-.19-.07-.19-.06-.19-.07-.19-.07-.19-.06-.19-.07-.19h0v25h24.95l-.19-.06-.19-.07-.19-.07-.19-.06-.19-.07-.19-.07L124,34.4l-.19-.07-.19-.07-.19-.06-.2-.07-.19-.06-.19-.07-.19-.07-.19-.06-.19-.07-.19-.07-.19-.06-.19-.07-.19-.07-.19-.06-.2-.07-.19-.06-.19-.07-.19-.07-.19-.06-.19-.07L120,33l-.19-.06-.19-.07-.19-.07-.2-.06-.19-.07-.19-.06-.19-.07-.19-.07-.19-.06-.19-.07-.19-.07-.19-.06-.19-.07-.19-.06-.2-.07-.19-.07-.19-.06-.19-.07-.19-.07-.19-.06-.19-.07-.19-.07-.19-.06-.19-.07-.19-.06-.2-.07-.19-.07-.19-.06-.19-.07-.19-.07-.19-.06-.19-.07-.19-.07-.19-.06-.19-.07-.19-.06-.2-.07-.19-.07-.19-.06-.19-.07-.19-.07-.19-.06-.19-.07-.19-.07-.19-.06L111.2,30l-.2-.06-.19-.07-.19-.07-.19-.06-.19-.07-.19-.07-.19-.06-.19-.07-.19-.07-.19-.06-.19-.07-.2-.06-.19-.07-.19-.07-.19-.06-.19-.07-.19-.07-.19-.06-.19-.07-.19-.06-.19-.07-.19-.07-.2-.06-.06-.19-.07-.2-.06-.19-.07-.19-.07-.19-.06-.19-.07-.19-.07-.19-.06-.19-.07-.19-.07-.19-.06-.19-.07-.2-.06-.19-.07-.19-.07-.19-.06-.19-.07-.19-.07-.19Z" transform="translate(-24.41 -2.73)"/></svg>